<mxfile host="app.diagrams.net" agent="Mozilla/5.0 (Windows NT 10.0; Win64; x64) AppleWebKit/537.36 (KHTML, like Gecko) Chrome/129.0.0.0 Safari/537.36" version="24.7.17">
  <diagram name="Page-1" id="CV3Bx3B1sZrTYhc-c2Kx">
    <mxGraphModel dx="2049" dy="1054" grid="1" gridSize="10" guides="1" tooltips="1" connect="1" arrows="1" fold="1" page="1" pageScale="1" pageWidth="850" pageHeight="1100" math="0" shadow="0">
      <root>
        <mxCell id="0" />
        <mxCell id="1" parent="0" />
        <mxCell id="WqCwe_9aJ0YRWQfrhxda-1" value="transaction_voucher_number" style="shape=table;startSize=30;container=1;collapsible=1;childLayout=tableLayout;fixedRows=1;rowLines=0;fontStyle=1;align=center;resizeLast=1;html=1;" vertex="1" parent="1">
          <mxGeometry x="420" y="80" width="230" height="180" as="geometry" />
        </mxCell>
        <mxCell id="WqCwe_9aJ0YRWQfrhxda-2" value="" style="shape=tableRow;horizontal=0;startSize=0;swimlaneHead=0;swimlaneBody=0;fillColor=none;collapsible=0;dropTarget=0;points=[[0,0.5],[1,0.5]];portConstraint=eastwest;top=0;left=0;right=0;bottom=1;" vertex="1" parent="WqCwe_9aJ0YRWQfrhxda-1">
          <mxGeometry y="30" width="230" height="30" as="geometry" />
        </mxCell>
        <mxCell id="WqCwe_9aJ0YRWQfrhxda-3" value="PK" style="shape=partialRectangle;connectable=0;fillColor=none;top=0;left=0;bottom=0;right=0;fontStyle=1;overflow=hidden;whiteSpace=wrap;html=1;" vertex="1" parent="WqCwe_9aJ0YRWQfrhxda-2">
          <mxGeometry width="30" height="30" as="geometry">
            <mxRectangle width="30" height="30" as="alternateBounds" />
          </mxGeometry>
        </mxCell>
        <mxCell id="WqCwe_9aJ0YRWQfrhxda-4" value="id" style="shape=partialRectangle;connectable=0;fillColor=none;top=0;left=0;bottom=0;right=0;align=left;spacingLeft=6;fontStyle=5;overflow=hidden;whiteSpace=wrap;html=1;" vertex="1" parent="WqCwe_9aJ0YRWQfrhxda-2">
          <mxGeometry x="30" width="200" height="30" as="geometry">
            <mxRectangle width="200" height="30" as="alternateBounds" />
          </mxGeometry>
        </mxCell>
        <mxCell id="WqCwe_9aJ0YRWQfrhxda-5" value="" style="shape=tableRow;horizontal=0;startSize=0;swimlaneHead=0;swimlaneBody=0;fillColor=none;collapsible=0;dropTarget=0;points=[[0,0.5],[1,0.5]];portConstraint=eastwest;top=0;left=0;right=0;bottom=0;" vertex="1" parent="WqCwe_9aJ0YRWQfrhxda-1">
          <mxGeometry y="60" width="230" height="30" as="geometry" />
        </mxCell>
        <mxCell id="WqCwe_9aJ0YRWQfrhxda-6" value="" style="shape=partialRectangle;connectable=0;fillColor=none;top=0;left=0;bottom=0;right=0;editable=1;overflow=hidden;whiteSpace=wrap;html=1;" vertex="1" parent="WqCwe_9aJ0YRWQfrhxda-5">
          <mxGeometry width="30" height="30" as="geometry">
            <mxRectangle width="30" height="30" as="alternateBounds" />
          </mxGeometry>
        </mxCell>
        <mxCell id="WqCwe_9aJ0YRWQfrhxda-7" value="hash_id" style="shape=partialRectangle;connectable=0;fillColor=none;top=0;left=0;bottom=0;right=0;align=left;spacingLeft=6;overflow=hidden;whiteSpace=wrap;html=1;" vertex="1" parent="WqCwe_9aJ0YRWQfrhxda-5">
          <mxGeometry x="30" width="200" height="30" as="geometry">
            <mxRectangle width="200" height="30" as="alternateBounds" />
          </mxGeometry>
        </mxCell>
        <mxCell id="WqCwe_9aJ0YRWQfrhxda-8" value="" style="shape=tableRow;horizontal=0;startSize=0;swimlaneHead=0;swimlaneBody=0;fillColor=none;collapsible=0;dropTarget=0;points=[[0,0.5],[1,0.5]];portConstraint=eastwest;top=0;left=0;right=0;bottom=0;" vertex="1" parent="WqCwe_9aJ0YRWQfrhxda-1">
          <mxGeometry y="90" width="230" height="30" as="geometry" />
        </mxCell>
        <mxCell id="WqCwe_9aJ0YRWQfrhxda-9" value="" style="shape=partialRectangle;connectable=0;fillColor=none;top=0;left=0;bottom=0;right=0;editable=1;overflow=hidden;whiteSpace=wrap;html=1;" vertex="1" parent="WqCwe_9aJ0YRWQfrhxda-8">
          <mxGeometry width="30" height="30" as="geometry">
            <mxRectangle width="30" height="30" as="alternateBounds" />
          </mxGeometry>
        </mxCell>
        <mxCell id="WqCwe_9aJ0YRWQfrhxda-10" value="transaction_hash_id" style="shape=partialRectangle;connectable=0;fillColor=none;top=0;left=0;bottom=0;right=0;align=left;spacingLeft=6;overflow=hidden;whiteSpace=wrap;html=1;" vertex="1" parent="WqCwe_9aJ0YRWQfrhxda-8">
          <mxGeometry x="30" width="200" height="30" as="geometry">
            <mxRectangle width="200" height="30" as="alternateBounds" />
          </mxGeometry>
        </mxCell>
        <mxCell id="WqCwe_9aJ0YRWQfrhxda-11" value="" style="shape=tableRow;horizontal=0;startSize=0;swimlaneHead=0;swimlaneBody=0;fillColor=none;collapsible=0;dropTarget=0;points=[[0,0.5],[1,0.5]];portConstraint=eastwest;top=0;left=0;right=0;bottom=0;" vertex="1" parent="WqCwe_9aJ0YRWQfrhxda-1">
          <mxGeometry y="120" width="230" height="30" as="geometry" />
        </mxCell>
        <mxCell id="WqCwe_9aJ0YRWQfrhxda-12" value="" style="shape=partialRectangle;connectable=0;fillColor=none;top=0;left=0;bottom=0;right=0;editable=1;overflow=hidden;whiteSpace=wrap;html=1;" vertex="1" parent="WqCwe_9aJ0YRWQfrhxda-11">
          <mxGeometry width="30" height="30" as="geometry">
            <mxRectangle width="30" height="30" as="alternateBounds" />
          </mxGeometry>
        </mxCell>
        <mxCell id="WqCwe_9aJ0YRWQfrhxda-13" value="referenceable_type" style="shape=partialRectangle;connectable=0;fillColor=none;top=0;left=0;bottom=0;right=0;align=left;spacingLeft=6;overflow=hidden;whiteSpace=wrap;html=1;" vertex="1" parent="WqCwe_9aJ0YRWQfrhxda-11">
          <mxGeometry x="30" width="200" height="30" as="geometry">
            <mxRectangle width="200" height="30" as="alternateBounds" />
          </mxGeometry>
        </mxCell>
        <mxCell id="WqCwe_9aJ0YRWQfrhxda-14" value="" style="shape=tableRow;horizontal=0;startSize=0;swimlaneHead=0;swimlaneBody=0;fillColor=none;collapsible=0;dropTarget=0;points=[[0,0.5],[1,0.5]];portConstraint=eastwest;top=0;left=0;right=0;bottom=0;" vertex="1" parent="WqCwe_9aJ0YRWQfrhxda-1">
          <mxGeometry y="150" width="230" height="30" as="geometry" />
        </mxCell>
        <mxCell id="WqCwe_9aJ0YRWQfrhxda-15" value="" style="shape=partialRectangle;connectable=0;fillColor=none;top=0;left=0;bottom=0;right=0;editable=1;overflow=hidden;whiteSpace=wrap;html=1;" vertex="1" parent="WqCwe_9aJ0YRWQfrhxda-14">
          <mxGeometry width="30" height="30" as="geometry">
            <mxRectangle width="30" height="30" as="alternateBounds" />
          </mxGeometry>
        </mxCell>
        <mxCell id="WqCwe_9aJ0YRWQfrhxda-16" value="referenceable_id" style="shape=partialRectangle;connectable=0;fillColor=none;top=0;left=0;bottom=0;right=0;align=left;spacingLeft=6;overflow=hidden;whiteSpace=wrap;html=1;" vertex="1" parent="WqCwe_9aJ0YRWQfrhxda-14">
          <mxGeometry x="30" width="200" height="30" as="geometry">
            <mxRectangle width="200" height="30" as="alternateBounds" />
          </mxGeometry>
        </mxCell>
        <mxCell id="WqCwe_9aJ0YRWQfrhxda-17" value="disbursement_type" style="shape=table;startSize=30;container=1;collapsible=1;childLayout=tableLayout;fixedRows=1;rowLines=0;fontStyle=1;align=center;resizeLast=1;html=1;" vertex="1" parent="1">
          <mxGeometry x="150" y="330" width="180" height="150" as="geometry" />
        </mxCell>
        <mxCell id="WqCwe_9aJ0YRWQfrhxda-18" value="" style="shape=tableRow;horizontal=0;startSize=0;swimlaneHead=0;swimlaneBody=0;fillColor=none;collapsible=0;dropTarget=0;points=[[0,0.5],[1,0.5]];portConstraint=eastwest;top=0;left=0;right=0;bottom=1;" vertex="1" parent="WqCwe_9aJ0YRWQfrhxda-17">
          <mxGeometry y="30" width="180" height="30" as="geometry" />
        </mxCell>
        <mxCell id="WqCwe_9aJ0YRWQfrhxda-19" value="PK" style="shape=partialRectangle;connectable=0;fillColor=none;top=0;left=0;bottom=0;right=0;fontStyle=1;overflow=hidden;whiteSpace=wrap;html=1;" vertex="1" parent="WqCwe_9aJ0YRWQfrhxda-18">
          <mxGeometry width="30" height="30" as="geometry">
            <mxRectangle width="30" height="30" as="alternateBounds" />
          </mxGeometry>
        </mxCell>
        <mxCell id="WqCwe_9aJ0YRWQfrhxda-20" value="id" style="shape=partialRectangle;connectable=0;fillColor=none;top=0;left=0;bottom=0;right=0;align=left;spacingLeft=6;fontStyle=5;overflow=hidden;whiteSpace=wrap;html=1;" vertex="1" parent="WqCwe_9aJ0YRWQfrhxda-18">
          <mxGeometry x="30" width="150" height="30" as="geometry">
            <mxRectangle width="150" height="30" as="alternateBounds" />
          </mxGeometry>
        </mxCell>
        <mxCell id="WqCwe_9aJ0YRWQfrhxda-21" value="" style="shape=tableRow;horizontal=0;startSize=0;swimlaneHead=0;swimlaneBody=0;fillColor=none;collapsible=0;dropTarget=0;points=[[0,0.5],[1,0.5]];portConstraint=eastwest;top=0;left=0;right=0;bottom=0;" vertex="1" parent="WqCwe_9aJ0YRWQfrhxda-17">
          <mxGeometry y="60" width="180" height="30" as="geometry" />
        </mxCell>
        <mxCell id="WqCwe_9aJ0YRWQfrhxda-22" value="" style="shape=partialRectangle;connectable=0;fillColor=none;top=0;left=0;bottom=0;right=0;editable=1;overflow=hidden;whiteSpace=wrap;html=1;" vertex="1" parent="WqCwe_9aJ0YRWQfrhxda-21">
          <mxGeometry width="30" height="30" as="geometry">
            <mxRectangle width="30" height="30" as="alternateBounds" />
          </mxGeometry>
        </mxCell>
        <mxCell id="WqCwe_9aJ0YRWQfrhxda-23" value="hash_id" style="shape=partialRectangle;connectable=0;fillColor=none;top=0;left=0;bottom=0;right=0;align=left;spacingLeft=6;overflow=hidden;whiteSpace=wrap;html=1;" vertex="1" parent="WqCwe_9aJ0YRWQfrhxda-21">
          <mxGeometry x="30" width="150" height="30" as="geometry">
            <mxRectangle width="150" height="30" as="alternateBounds" />
          </mxGeometry>
        </mxCell>
        <mxCell id="WqCwe_9aJ0YRWQfrhxda-24" value="" style="shape=tableRow;horizontal=0;startSize=0;swimlaneHead=0;swimlaneBody=0;fillColor=none;collapsible=0;dropTarget=0;points=[[0,0.5],[1,0.5]];portConstraint=eastwest;top=0;left=0;right=0;bottom=0;" vertex="1" parent="WqCwe_9aJ0YRWQfrhxda-17">
          <mxGeometry y="90" width="180" height="30" as="geometry" />
        </mxCell>
        <mxCell id="WqCwe_9aJ0YRWQfrhxda-25" value="" style="shape=partialRectangle;connectable=0;fillColor=none;top=0;left=0;bottom=0;right=0;editable=1;overflow=hidden;whiteSpace=wrap;html=1;" vertex="1" parent="WqCwe_9aJ0YRWQfrhxda-24">
          <mxGeometry width="30" height="30" as="geometry">
            <mxRectangle width="30" height="30" as="alternateBounds" />
          </mxGeometry>
        </mxCell>
        <mxCell id="WqCwe_9aJ0YRWQfrhxda-26" value="code" style="shape=partialRectangle;connectable=0;fillColor=none;top=0;left=0;bottom=0;right=0;align=left;spacingLeft=6;overflow=hidden;whiteSpace=wrap;html=1;" vertex="1" parent="WqCwe_9aJ0YRWQfrhxda-24">
          <mxGeometry x="30" width="150" height="30" as="geometry">
            <mxRectangle width="150" height="30" as="alternateBounds" />
          </mxGeometry>
        </mxCell>
        <mxCell id="WqCwe_9aJ0YRWQfrhxda-27" value="" style="shape=tableRow;horizontal=0;startSize=0;swimlaneHead=0;swimlaneBody=0;fillColor=none;collapsible=0;dropTarget=0;points=[[0,0.5],[1,0.5]];portConstraint=eastwest;top=0;left=0;right=0;bottom=0;" vertex="1" parent="WqCwe_9aJ0YRWQfrhxda-17">
          <mxGeometry y="120" width="180" height="30" as="geometry" />
        </mxCell>
        <mxCell id="WqCwe_9aJ0YRWQfrhxda-28" value="" style="shape=partialRectangle;connectable=0;fillColor=none;top=0;left=0;bottom=0;right=0;editable=1;overflow=hidden;whiteSpace=wrap;html=1;" vertex="1" parent="WqCwe_9aJ0YRWQfrhxda-27">
          <mxGeometry width="30" height="30" as="geometry">
            <mxRectangle width="30" height="30" as="alternateBounds" />
          </mxGeometry>
        </mxCell>
        <mxCell id="WqCwe_9aJ0YRWQfrhxda-29" value="name" style="shape=partialRectangle;connectable=0;fillColor=none;top=0;left=0;bottom=0;right=0;align=left;spacingLeft=6;overflow=hidden;whiteSpace=wrap;html=1;" vertex="1" parent="WqCwe_9aJ0YRWQfrhxda-27">
          <mxGeometry x="30" width="150" height="30" as="geometry">
            <mxRectangle width="150" height="30" as="alternateBounds" />
          </mxGeometry>
        </mxCell>
        <mxCell id="WqCwe_9aJ0YRWQfrhxda-30" value="payment_type" style="shape=table;startSize=30;container=1;collapsible=1;childLayout=tableLayout;fixedRows=1;rowLines=0;fontStyle=1;align=center;resizeLast=1;html=1;" vertex="1" parent="1">
          <mxGeometry x="740" y="330" width="180" height="150" as="geometry" />
        </mxCell>
        <mxCell id="WqCwe_9aJ0YRWQfrhxda-31" value="" style="shape=tableRow;horizontal=0;startSize=0;swimlaneHead=0;swimlaneBody=0;fillColor=none;collapsible=0;dropTarget=0;points=[[0,0.5],[1,0.5]];portConstraint=eastwest;top=0;left=0;right=0;bottom=1;" vertex="1" parent="WqCwe_9aJ0YRWQfrhxda-30">
          <mxGeometry y="30" width="180" height="30" as="geometry" />
        </mxCell>
        <mxCell id="WqCwe_9aJ0YRWQfrhxda-32" value="PK" style="shape=partialRectangle;connectable=0;fillColor=none;top=0;left=0;bottom=0;right=0;fontStyle=1;overflow=hidden;whiteSpace=wrap;html=1;" vertex="1" parent="WqCwe_9aJ0YRWQfrhxda-31">
          <mxGeometry width="30" height="30" as="geometry">
            <mxRectangle width="30" height="30" as="alternateBounds" />
          </mxGeometry>
        </mxCell>
        <mxCell id="WqCwe_9aJ0YRWQfrhxda-33" value="id" style="shape=partialRectangle;connectable=0;fillColor=none;top=0;left=0;bottom=0;right=0;align=left;spacingLeft=6;fontStyle=5;overflow=hidden;whiteSpace=wrap;html=1;" vertex="1" parent="WqCwe_9aJ0YRWQfrhxda-31">
          <mxGeometry x="30" width="150" height="30" as="geometry">
            <mxRectangle width="150" height="30" as="alternateBounds" />
          </mxGeometry>
        </mxCell>
        <mxCell id="WqCwe_9aJ0YRWQfrhxda-34" value="" style="shape=tableRow;horizontal=0;startSize=0;swimlaneHead=0;swimlaneBody=0;fillColor=none;collapsible=0;dropTarget=0;points=[[0,0.5],[1,0.5]];portConstraint=eastwest;top=0;left=0;right=0;bottom=0;" vertex="1" parent="WqCwe_9aJ0YRWQfrhxda-30">
          <mxGeometry y="60" width="180" height="30" as="geometry" />
        </mxCell>
        <mxCell id="WqCwe_9aJ0YRWQfrhxda-35" value="" style="shape=partialRectangle;connectable=0;fillColor=none;top=0;left=0;bottom=0;right=0;editable=1;overflow=hidden;whiteSpace=wrap;html=1;" vertex="1" parent="WqCwe_9aJ0YRWQfrhxda-34">
          <mxGeometry width="30" height="30" as="geometry">
            <mxRectangle width="30" height="30" as="alternateBounds" />
          </mxGeometry>
        </mxCell>
        <mxCell id="WqCwe_9aJ0YRWQfrhxda-36" value="hash_id" style="shape=partialRectangle;connectable=0;fillColor=none;top=0;left=0;bottom=0;right=0;align=left;spacingLeft=6;overflow=hidden;whiteSpace=wrap;html=1;" vertex="1" parent="WqCwe_9aJ0YRWQfrhxda-34">
          <mxGeometry x="30" width="150" height="30" as="geometry">
            <mxRectangle width="150" height="30" as="alternateBounds" />
          </mxGeometry>
        </mxCell>
        <mxCell id="WqCwe_9aJ0YRWQfrhxda-37" value="" style="shape=tableRow;horizontal=0;startSize=0;swimlaneHead=0;swimlaneBody=0;fillColor=none;collapsible=0;dropTarget=0;points=[[0,0.5],[1,0.5]];portConstraint=eastwest;top=0;left=0;right=0;bottom=0;" vertex="1" parent="WqCwe_9aJ0YRWQfrhxda-30">
          <mxGeometry y="90" width="180" height="30" as="geometry" />
        </mxCell>
        <mxCell id="WqCwe_9aJ0YRWQfrhxda-38" value="" style="shape=partialRectangle;connectable=0;fillColor=none;top=0;left=0;bottom=0;right=0;editable=1;overflow=hidden;whiteSpace=wrap;html=1;" vertex="1" parent="WqCwe_9aJ0YRWQfrhxda-37">
          <mxGeometry width="30" height="30" as="geometry">
            <mxRectangle width="30" height="30" as="alternateBounds" />
          </mxGeometry>
        </mxCell>
        <mxCell id="WqCwe_9aJ0YRWQfrhxda-39" value="code" style="shape=partialRectangle;connectable=0;fillColor=none;top=0;left=0;bottom=0;right=0;align=left;spacingLeft=6;overflow=hidden;whiteSpace=wrap;html=1;" vertex="1" parent="WqCwe_9aJ0YRWQfrhxda-37">
          <mxGeometry x="30" width="150" height="30" as="geometry">
            <mxRectangle width="150" height="30" as="alternateBounds" />
          </mxGeometry>
        </mxCell>
        <mxCell id="WqCwe_9aJ0YRWQfrhxda-40" value="" style="shape=tableRow;horizontal=0;startSize=0;swimlaneHead=0;swimlaneBody=0;fillColor=none;collapsible=0;dropTarget=0;points=[[0,0.5],[1,0.5]];portConstraint=eastwest;top=0;left=0;right=0;bottom=0;" vertex="1" parent="WqCwe_9aJ0YRWQfrhxda-30">
          <mxGeometry y="120" width="180" height="30" as="geometry" />
        </mxCell>
        <mxCell id="WqCwe_9aJ0YRWQfrhxda-41" value="" style="shape=partialRectangle;connectable=0;fillColor=none;top=0;left=0;bottom=0;right=0;editable=1;overflow=hidden;whiteSpace=wrap;html=1;" vertex="1" parent="WqCwe_9aJ0YRWQfrhxda-40">
          <mxGeometry width="30" height="30" as="geometry">
            <mxRectangle width="30" height="30" as="alternateBounds" />
          </mxGeometry>
        </mxCell>
        <mxCell id="WqCwe_9aJ0YRWQfrhxda-42" value="name" style="shape=partialRectangle;connectable=0;fillColor=none;top=0;left=0;bottom=0;right=0;align=left;spacingLeft=6;overflow=hidden;whiteSpace=wrap;html=1;" vertex="1" parent="WqCwe_9aJ0YRWQfrhxda-40">
          <mxGeometry x="30" width="150" height="30" as="geometry">
            <mxRectangle width="150" height="30" as="alternateBounds" />
          </mxGeometry>
        </mxCell>
        <mxCell id="WqCwe_9aJ0YRWQfrhxda-43" value="" style="edgeStyle=entityRelationEdgeStyle;fontSize=12;html=1;endArrow=ERoneToMany;rounded=0;exitX=0;exitY=0.5;exitDx=0;exitDy=0;" edge="1" parent="1" source="WqCwe_9aJ0YRWQfrhxda-34" target="WqCwe_9aJ0YRWQfrhxda-11">
          <mxGeometry width="100" height="100" relative="1" as="geometry">
            <mxPoint x="720" y="400" as="sourcePoint" />
            <mxPoint x="820" y="300" as="targetPoint" />
          </mxGeometry>
        </mxCell>
        <mxCell id="WqCwe_9aJ0YRWQfrhxda-44" value="" style="edgeStyle=entityRelationEdgeStyle;fontSize=12;html=1;endArrow=ERoneToMany;rounded=0;exitX=1;exitY=0.5;exitDx=0;exitDy=0;entryX=0;entryY=0.5;entryDx=0;entryDy=0;" edge="1" parent="1" source="WqCwe_9aJ0YRWQfrhxda-21" target="WqCwe_9aJ0YRWQfrhxda-11">
          <mxGeometry width="100" height="100" relative="1" as="geometry">
            <mxPoint x="575" y="431" as="sourcePoint" />
            <mxPoint x="675" y="331" as="targetPoint" />
          </mxGeometry>
        </mxCell>
        <mxCell id="WqCwe_9aJ0YRWQfrhxda-45" value="transaction_voucher_numbers" style="shape=table;startSize=30;container=1;collapsible=0;childLayout=tableLayout;strokeColor=default;fontSize=16;" vertex="1" parent="1">
          <mxGeometry x="80" y="630" width="625" height="150" as="geometry" />
        </mxCell>
        <mxCell id="WqCwe_9aJ0YRWQfrhxda-46" value="" style="shape=tableRow;horizontal=0;startSize=0;swimlaneHead=0;swimlaneBody=0;strokeColor=inherit;top=0;left=0;bottom=0;right=0;collapsible=0;dropTarget=0;fillColor=none;points=[[0,0.5],[1,0.5]];portConstraint=eastwest;fontSize=16;" vertex="1" parent="WqCwe_9aJ0YRWQfrhxda-45">
          <mxGeometry y="30" width="625" height="40" as="geometry" />
        </mxCell>
        <mxCell id="WqCwe_9aJ0YRWQfrhxda-47" value="transaction_hash_id" style="shape=partialRectangle;html=1;whiteSpace=wrap;connectable=0;strokeColor=inherit;overflow=hidden;fillColor=none;top=0;left=0;bottom=0;right=0;pointerEvents=1;fontSize=16;" vertex="1" parent="WqCwe_9aJ0YRWQfrhxda-46">
          <mxGeometry width="208" height="40" as="geometry">
            <mxRectangle width="208" height="40" as="alternateBounds" />
          </mxGeometry>
        </mxCell>
        <mxCell id="WqCwe_9aJ0YRWQfrhxda-48" value="referenceable_type" style="shape=partialRectangle;html=1;whiteSpace=wrap;connectable=0;strokeColor=inherit;overflow=hidden;fillColor=none;top=0;left=0;bottom=0;right=0;pointerEvents=1;fontSize=16;" vertex="1" parent="WqCwe_9aJ0YRWQfrhxda-46">
          <mxGeometry x="208" width="209" height="40" as="geometry">
            <mxRectangle width="209" height="40" as="alternateBounds" />
          </mxGeometry>
        </mxCell>
        <mxCell id="WqCwe_9aJ0YRWQfrhxda-49" value="referenceable_id" style="shape=partialRectangle;html=1;whiteSpace=wrap;connectable=0;strokeColor=inherit;overflow=hidden;fillColor=none;top=0;left=0;bottom=0;right=0;pointerEvents=1;fontSize=16;" vertex="1" parent="WqCwe_9aJ0YRWQfrhxda-46">
          <mxGeometry x="417" width="208" height="40" as="geometry">
            <mxRectangle width="208" height="40" as="alternateBounds" />
          </mxGeometry>
        </mxCell>
        <mxCell id="WqCwe_9aJ0YRWQfrhxda-50" value="" style="shape=tableRow;horizontal=0;startSize=0;swimlaneHead=0;swimlaneBody=0;strokeColor=inherit;top=0;left=0;bottom=0;right=0;collapsible=0;dropTarget=0;fillColor=none;points=[[0,0.5],[1,0.5]];portConstraint=eastwest;fontSize=16;" vertex="1" parent="WqCwe_9aJ0YRWQfrhxda-45">
          <mxGeometry y="70" width="625" height="40" as="geometry" />
        </mxCell>
        <mxCell id="WqCwe_9aJ0YRWQfrhxda-51" value="1" style="shape=partialRectangle;html=1;whiteSpace=wrap;connectable=0;strokeColor=inherit;overflow=hidden;fillColor=none;top=0;left=0;bottom=0;right=0;pointerEvents=1;fontSize=16;" vertex="1" parent="WqCwe_9aJ0YRWQfrhxda-50">
          <mxGeometry width="208" height="40" as="geometry">
            <mxRectangle width="208" height="40" as="alternateBounds" />
          </mxGeometry>
        </mxCell>
        <mxCell id="WqCwe_9aJ0YRWQfrhxda-52" value="BaseDisbursementType" style="shape=partialRectangle;html=1;whiteSpace=wrap;connectable=0;strokeColor=inherit;overflow=hidden;fillColor=none;top=0;left=0;bottom=0;right=0;pointerEvents=1;fontSize=16;" vertex="1" parent="WqCwe_9aJ0YRWQfrhxda-50">
          <mxGeometry x="208" width="209" height="40" as="geometry">
            <mxRectangle width="209" height="40" as="alternateBounds" />
          </mxGeometry>
        </mxCell>
        <mxCell id="WqCwe_9aJ0YRWQfrhxda-53" value="1" style="shape=partialRectangle;html=1;whiteSpace=wrap;connectable=0;strokeColor=inherit;overflow=hidden;fillColor=none;top=0;left=0;bottom=0;right=0;pointerEvents=1;fontSize=16;" vertex="1" parent="WqCwe_9aJ0YRWQfrhxda-50">
          <mxGeometry x="417" width="208" height="40" as="geometry">
            <mxRectangle width="208" height="40" as="alternateBounds" />
          </mxGeometry>
        </mxCell>
        <mxCell id="WqCwe_9aJ0YRWQfrhxda-54" value="" style="shape=tableRow;horizontal=0;startSize=0;swimlaneHead=0;swimlaneBody=0;strokeColor=inherit;top=0;left=0;bottom=0;right=0;collapsible=0;dropTarget=0;fillColor=none;points=[[0,0.5],[1,0.5]];portConstraint=eastwest;fontSize=16;" vertex="1" parent="WqCwe_9aJ0YRWQfrhxda-45">
          <mxGeometry y="110" width="625" height="40" as="geometry" />
        </mxCell>
        <mxCell id="WqCwe_9aJ0YRWQfrhxda-55" value="2" style="shape=partialRectangle;html=1;whiteSpace=wrap;connectable=0;strokeColor=inherit;overflow=hidden;fillColor=none;top=0;left=0;bottom=0;right=0;pointerEvents=1;fontSize=16;" vertex="1" parent="WqCwe_9aJ0YRWQfrhxda-54">
          <mxGeometry width="208" height="40" as="geometry">
            <mxRectangle width="208" height="40" as="alternateBounds" />
          </mxGeometry>
        </mxCell>
        <mxCell id="WqCwe_9aJ0YRWQfrhxda-56" value="BasePaymentType" style="shape=partialRectangle;html=1;whiteSpace=wrap;connectable=0;strokeColor=inherit;overflow=hidden;fillColor=none;top=0;left=0;bottom=0;right=0;pointerEvents=1;fontSize=16;" vertex="1" parent="WqCwe_9aJ0YRWQfrhxda-54">
          <mxGeometry x="208" width="209" height="40" as="geometry">
            <mxRectangle width="209" height="40" as="alternateBounds" />
          </mxGeometry>
        </mxCell>
        <mxCell id="WqCwe_9aJ0YRWQfrhxda-57" value="1" style="shape=partialRectangle;html=1;whiteSpace=wrap;connectable=0;strokeColor=inherit;overflow=hidden;fillColor=none;top=0;left=0;bottom=0;right=0;pointerEvents=1;fontSize=16;" vertex="1" parent="WqCwe_9aJ0YRWQfrhxda-54">
          <mxGeometry x="417" width="208" height="40" as="geometry">
            <mxRectangle width="208" height="40" as="alternateBounds" />
          </mxGeometry>
        </mxCell>
        <mxCell id="WqCwe_9aJ0YRWQfrhxda-91" value="disbursement_type" style="shape=table;startSize=30;container=1;collapsible=0;childLayout=tableLayout;strokeColor=default;fontSize=16;" vertex="1" parent="1">
          <mxGeometry x="890" y="530" width="625" height="150" as="geometry" />
        </mxCell>
        <mxCell id="WqCwe_9aJ0YRWQfrhxda-92" value="" style="shape=tableRow;horizontal=0;startSize=0;swimlaneHead=0;swimlaneBody=0;strokeColor=inherit;top=0;left=0;bottom=0;right=0;collapsible=0;dropTarget=0;fillColor=none;points=[[0,0.5],[1,0.5]];portConstraint=eastwest;fontSize=16;" vertex="1" parent="WqCwe_9aJ0YRWQfrhxda-91">
          <mxGeometry y="30" width="625" height="40" as="geometry" />
        </mxCell>
        <mxCell id="WqCwe_9aJ0YRWQfrhxda-93" value="hash_id" style="shape=partialRectangle;html=1;whiteSpace=wrap;connectable=0;strokeColor=inherit;overflow=hidden;fillColor=none;top=0;left=0;bottom=0;right=0;pointerEvents=1;fontSize=16;" vertex="1" parent="WqCwe_9aJ0YRWQfrhxda-92">
          <mxGeometry width="208" height="40" as="geometry">
            <mxRectangle width="208" height="40" as="alternateBounds" />
          </mxGeometry>
        </mxCell>
        <mxCell id="WqCwe_9aJ0YRWQfrhxda-94" value="code" style="shape=partialRectangle;html=1;whiteSpace=wrap;connectable=0;strokeColor=inherit;overflow=hidden;fillColor=none;top=0;left=0;bottom=0;right=0;pointerEvents=1;fontSize=16;" vertex="1" parent="WqCwe_9aJ0YRWQfrhxda-92">
          <mxGeometry x="208" width="209" height="40" as="geometry">
            <mxRectangle width="209" height="40" as="alternateBounds" />
          </mxGeometry>
        </mxCell>
        <mxCell id="WqCwe_9aJ0YRWQfrhxda-95" value="name" style="shape=partialRectangle;html=1;whiteSpace=wrap;connectable=0;strokeColor=inherit;overflow=hidden;fillColor=none;top=0;left=0;bottom=0;right=0;pointerEvents=1;fontSize=16;" vertex="1" parent="WqCwe_9aJ0YRWQfrhxda-92">
          <mxGeometry x="417" width="208" height="40" as="geometry">
            <mxRectangle width="208" height="40" as="alternateBounds" />
          </mxGeometry>
        </mxCell>
        <mxCell id="WqCwe_9aJ0YRWQfrhxda-96" value="" style="shape=tableRow;horizontal=0;startSize=0;swimlaneHead=0;swimlaneBody=0;strokeColor=inherit;top=0;left=0;bottom=0;right=0;collapsible=0;dropTarget=0;fillColor=none;points=[[0,0.5],[1,0.5]];portConstraint=eastwest;fontSize=16;" vertex="1" parent="WqCwe_9aJ0YRWQfrhxda-91">
          <mxGeometry y="70" width="625" height="40" as="geometry" />
        </mxCell>
        <mxCell id="WqCwe_9aJ0YRWQfrhxda-97" value="1" style="shape=partialRectangle;html=1;whiteSpace=wrap;connectable=0;strokeColor=inherit;overflow=hidden;fillColor=none;top=0;left=0;bottom=0;right=0;pointerEvents=1;fontSize=16;" vertex="1" parent="WqCwe_9aJ0YRWQfrhxda-96">
          <mxGeometry width="208" height="40" as="geometry">
            <mxRectangle width="208" height="40" as="alternateBounds" />
          </mxGeometry>
        </mxCell>
        <mxCell id="WqCwe_9aJ0YRWQfrhxda-98" value="T/T" style="shape=partialRectangle;html=1;whiteSpace=wrap;connectable=0;strokeColor=inherit;overflow=hidden;fillColor=none;top=0;left=0;bottom=0;right=0;pointerEvents=1;fontSize=16;" vertex="1" parent="WqCwe_9aJ0YRWQfrhxda-96">
          <mxGeometry x="208" width="209" height="40" as="geometry">
            <mxRectangle width="209" height="40" as="alternateBounds" />
          </mxGeometry>
        </mxCell>
        <mxCell id="WqCwe_9aJ0YRWQfrhxda-99" value="Telegraphic Transfer" style="shape=partialRectangle;html=1;whiteSpace=wrap;connectable=0;strokeColor=inherit;overflow=hidden;fillColor=none;top=0;left=0;bottom=0;right=0;pointerEvents=1;fontSize=16;" vertex="1" parent="WqCwe_9aJ0YRWQfrhxda-96">
          <mxGeometry x="417" width="208" height="40" as="geometry">
            <mxRectangle width="208" height="40" as="alternateBounds" />
          </mxGeometry>
        </mxCell>
        <mxCell id="WqCwe_9aJ0YRWQfrhxda-100" value="" style="shape=tableRow;horizontal=0;startSize=0;swimlaneHead=0;swimlaneBody=0;strokeColor=inherit;top=0;left=0;bottom=0;right=0;collapsible=0;dropTarget=0;fillColor=none;points=[[0,0.5],[1,0.5]];portConstraint=eastwest;fontSize=16;" vertex="1" parent="WqCwe_9aJ0YRWQfrhxda-91">
          <mxGeometry y="110" width="625" height="40" as="geometry" />
        </mxCell>
        <mxCell id="WqCwe_9aJ0YRWQfrhxda-101" value="2" style="shape=partialRectangle;html=1;whiteSpace=wrap;connectable=0;strokeColor=inherit;overflow=hidden;fillColor=none;top=0;left=0;bottom=0;right=0;pointerEvents=1;fontSize=16;" vertex="1" parent="WqCwe_9aJ0YRWQfrhxda-100">
          <mxGeometry width="208" height="40" as="geometry">
            <mxRectangle width="208" height="40" as="alternateBounds" />
          </mxGeometry>
        </mxCell>
        <mxCell id="WqCwe_9aJ0YRWQfrhxda-102" value="ON" style="shape=partialRectangle;html=1;whiteSpace=wrap;connectable=0;strokeColor=inherit;overflow=hidden;fillColor=none;top=0;left=0;bottom=0;right=0;pointerEvents=1;fontSize=16;" vertex="1" parent="WqCwe_9aJ0YRWQfrhxda-100">
          <mxGeometry x="208" width="209" height="40" as="geometry">
            <mxRectangle width="209" height="40" as="alternateBounds" />
          </mxGeometry>
        </mxCell>
        <mxCell id="WqCwe_9aJ0YRWQfrhxda-103" value="Online Payment" style="shape=partialRectangle;html=1;whiteSpace=wrap;connectable=0;strokeColor=inherit;overflow=hidden;fillColor=none;top=0;left=0;bottom=0;right=0;pointerEvents=1;fontSize=16;" vertex="1" parent="WqCwe_9aJ0YRWQfrhxda-100">
          <mxGeometry x="417" width="208" height="40" as="geometry">
            <mxRectangle width="208" height="40" as="alternateBounds" />
          </mxGeometry>
        </mxCell>
        <mxCell id="WqCwe_9aJ0YRWQfrhxda-104" value="payment_type" style="shape=table;startSize=30;container=1;collapsible=0;childLayout=tableLayout;strokeColor=default;fontSize=16;" vertex="1" parent="1">
          <mxGeometry x="890" y="810" width="625" height="150" as="geometry" />
        </mxCell>
        <mxCell id="WqCwe_9aJ0YRWQfrhxda-105" value="" style="shape=tableRow;horizontal=0;startSize=0;swimlaneHead=0;swimlaneBody=0;strokeColor=inherit;top=0;left=0;bottom=0;right=0;collapsible=0;dropTarget=0;fillColor=none;points=[[0,0.5],[1,0.5]];portConstraint=eastwest;fontSize=16;" vertex="1" parent="WqCwe_9aJ0YRWQfrhxda-104">
          <mxGeometry y="30" width="625" height="40" as="geometry" />
        </mxCell>
        <mxCell id="WqCwe_9aJ0YRWQfrhxda-106" value="hash_id" style="shape=partialRectangle;html=1;whiteSpace=wrap;connectable=0;strokeColor=inherit;overflow=hidden;fillColor=none;top=0;left=0;bottom=0;right=0;pointerEvents=1;fontSize=16;" vertex="1" parent="WqCwe_9aJ0YRWQfrhxda-105">
          <mxGeometry width="208" height="40" as="geometry">
            <mxRectangle width="208" height="40" as="alternateBounds" />
          </mxGeometry>
        </mxCell>
        <mxCell id="WqCwe_9aJ0YRWQfrhxda-107" value="code" style="shape=partialRectangle;html=1;whiteSpace=wrap;connectable=0;strokeColor=inherit;overflow=hidden;fillColor=none;top=0;left=0;bottom=0;right=0;pointerEvents=1;fontSize=16;" vertex="1" parent="WqCwe_9aJ0YRWQfrhxda-105">
          <mxGeometry x="208" width="209" height="40" as="geometry">
            <mxRectangle width="209" height="40" as="alternateBounds" />
          </mxGeometry>
        </mxCell>
        <mxCell id="WqCwe_9aJ0YRWQfrhxda-108" value="name" style="shape=partialRectangle;html=1;whiteSpace=wrap;connectable=0;strokeColor=inherit;overflow=hidden;fillColor=none;top=0;left=0;bottom=0;right=0;pointerEvents=1;fontSize=16;" vertex="1" parent="WqCwe_9aJ0YRWQfrhxda-105">
          <mxGeometry x="417" width="208" height="40" as="geometry">
            <mxRectangle width="208" height="40" as="alternateBounds" />
          </mxGeometry>
        </mxCell>
        <mxCell id="WqCwe_9aJ0YRWQfrhxda-109" value="" style="shape=tableRow;horizontal=0;startSize=0;swimlaneHead=0;swimlaneBody=0;strokeColor=inherit;top=0;left=0;bottom=0;right=0;collapsible=0;dropTarget=0;fillColor=none;points=[[0,0.5],[1,0.5]];portConstraint=eastwest;fontSize=16;" vertex="1" parent="WqCwe_9aJ0YRWQfrhxda-104">
          <mxGeometry y="70" width="625" height="40" as="geometry" />
        </mxCell>
        <mxCell id="WqCwe_9aJ0YRWQfrhxda-110" value="1" style="shape=partialRectangle;html=1;whiteSpace=wrap;connectable=0;strokeColor=inherit;overflow=hidden;fillColor=none;top=0;left=0;bottom=0;right=0;pointerEvents=1;fontSize=16;" vertex="1" parent="WqCwe_9aJ0YRWQfrhxda-109">
          <mxGeometry width="208" height="40" as="geometry">
            <mxRectangle width="208" height="40" as="alternateBounds" />
          </mxGeometry>
        </mxCell>
        <mxCell id="WqCwe_9aJ0YRWQfrhxda-111" value="ca" style="shape=partialRectangle;html=1;whiteSpace=wrap;connectable=0;strokeColor=inherit;overflow=hidden;fillColor=none;top=0;left=0;bottom=0;right=0;pointerEvents=1;fontSize=16;" vertex="1" parent="WqCwe_9aJ0YRWQfrhxda-109">
          <mxGeometry x="208" width="209" height="40" as="geometry">
            <mxRectangle width="209" height="40" as="alternateBounds" />
          </mxGeometry>
        </mxCell>
        <mxCell id="WqCwe_9aJ0YRWQfrhxda-112" value="Cash" style="shape=partialRectangle;html=1;whiteSpace=wrap;connectable=0;strokeColor=inherit;overflow=hidden;fillColor=none;top=0;left=0;bottom=0;right=0;pointerEvents=1;fontSize=16;" vertex="1" parent="WqCwe_9aJ0YRWQfrhxda-109">
          <mxGeometry x="417" width="208" height="40" as="geometry">
            <mxRectangle width="208" height="40" as="alternateBounds" />
          </mxGeometry>
        </mxCell>
        <mxCell id="WqCwe_9aJ0YRWQfrhxda-113" value="" style="shape=tableRow;horizontal=0;startSize=0;swimlaneHead=0;swimlaneBody=0;strokeColor=inherit;top=0;left=0;bottom=0;right=0;collapsible=0;dropTarget=0;fillColor=none;points=[[0,0.5],[1,0.5]];portConstraint=eastwest;fontSize=16;" vertex="1" parent="WqCwe_9aJ0YRWQfrhxda-104">
          <mxGeometry y="110" width="625" height="40" as="geometry" />
        </mxCell>
        <mxCell id="WqCwe_9aJ0YRWQfrhxda-114" value="2" style="shape=partialRectangle;html=1;whiteSpace=wrap;connectable=0;strokeColor=inherit;overflow=hidden;fillColor=none;top=0;left=0;bottom=0;right=0;pointerEvents=1;fontSize=16;" vertex="1" parent="WqCwe_9aJ0YRWQfrhxda-113">
          <mxGeometry width="208" height="40" as="geometry">
            <mxRectangle width="208" height="40" as="alternateBounds" />
          </mxGeometry>
        </mxCell>
        <mxCell id="WqCwe_9aJ0YRWQfrhxda-115" value="ch" style="shape=partialRectangle;html=1;whiteSpace=wrap;connectable=0;strokeColor=inherit;overflow=hidden;fillColor=none;top=0;left=0;bottom=0;right=0;pointerEvents=1;fontSize=16;" vertex="1" parent="WqCwe_9aJ0YRWQfrhxda-113">
          <mxGeometry x="208" width="209" height="40" as="geometry">
            <mxRectangle width="209" height="40" as="alternateBounds" />
          </mxGeometry>
        </mxCell>
        <mxCell id="WqCwe_9aJ0YRWQfrhxda-116" value="Check" style="shape=partialRectangle;html=1;whiteSpace=wrap;connectable=0;strokeColor=inherit;overflow=hidden;fillColor=none;top=0;left=0;bottom=0;right=0;pointerEvents=1;fontSize=16;" vertex="1" parent="WqCwe_9aJ0YRWQfrhxda-113">
          <mxGeometry x="417" width="208" height="40" as="geometry">
            <mxRectangle width="208" height="40" as="alternateBounds" />
          </mxGeometry>
        </mxCell>
        <mxCell id="WqCwe_9aJ0YRWQfrhxda-117" value="" style="edgeStyle=entityRelationEdgeStyle;fontSize=12;html=1;endArrow=ERoneToMany;rounded=0;entryX=1;entryY=0.5;entryDx=0;entryDy=0;" edge="1" parent="1" source="WqCwe_9aJ0YRWQfrhxda-91" target="WqCwe_9aJ0YRWQfrhxda-50">
          <mxGeometry width="100" height="100" relative="1" as="geometry">
            <mxPoint x="900" y="900" as="sourcePoint" />
            <mxPoint x="1000" y="800" as="targetPoint" />
          </mxGeometry>
        </mxCell>
        <mxCell id="WqCwe_9aJ0YRWQfrhxda-118" value="" style="edgeStyle=entityRelationEdgeStyle;fontSize=12;html=1;endArrow=ERoneToMany;rounded=0;" edge="1" parent="1" source="WqCwe_9aJ0YRWQfrhxda-104" target="WqCwe_9aJ0YRWQfrhxda-54">
          <mxGeometry width="100" height="100" relative="1" as="geometry">
            <mxPoint x="809.375" y="932.6000000000001" as="sourcePoint" />
            <mxPoint x="600" y="830" as="targetPoint" />
          </mxGeometry>
        </mxCell>
      </root>
    </mxGraphModel>
  </diagram>
</mxfile>
